<?xml version="1.0" encoding="UTF-8" standalone="no"?>
<svg
   version="1.0"
   width="600"
   height="600"
   viewBox="0 0 449.99999 449.99999"
   preserveAspectRatio="xMidYMid meet"
   id="svg8"
   sodipodi:docname="Rwanda Papers.svg"
   inkscape:version="1.3.2 (091e20e, 2023-11-25, custom)"
   inkscape:export-filename="Rwanda Papers.png"
   inkscape:export-xdpi="96"
   inkscape:export-ydpi="96"
   xmlns:inkscape="http://www.inkscape.org/namespaces/inkscape"
   xmlns:sodipodi="http://sodipodi.sourceforge.net/DTD/sodipodi-0.dtd"
   xmlns="http://www.w3.org/2000/svg"
   xmlns:svg="http://www.w3.org/2000/svg">
  <defs
     id="defs12" />
  <sodipodi:namedview
     id="namedview10"
     pagecolor="#ffffff"
     bordercolor="#666666"
     borderopacity="1.0"
     inkscape:pageshadow="2"
     inkscape:pageopacity="0.0"
     inkscape:pagecheckerboard="0"
     inkscape:document-units="pt"
     showgrid="false"
     inkscape:zoom="1.4142136"
     inkscape:cx="255.61909"
     inkscape:cy="268.34702"
     inkscape:window-width="1920"
     inkscape:window-height="991"
     inkscape:window-x="-9"
     inkscape:window-y="-9"
     inkscape:window-maximized="1"
     inkscape:current-layer="svg8"
     width="500pt"
     units="px"
     inkscape:showpageshadow="2"
     inkscape:deskcolor="#d1d1d1" />
  <g
     transform="matrix(0.1,0,0,-0.1,0,512)"
     fill="#000000"
     stroke="none"
     id="g6"
     inkscape:label="Logo">
    <g
       id="g17022"
       transform="matrix(0.96301955,0,0,0.96092654,35.134599,160.05581)">
      <g
         id="g1014"
         transform="matrix(2.0121951,0,0,2.0121951,5.2701585,-5192.8458)">
        <g
           id="g844"
           transform="matrix(0.45456546,0,0,0.45454546,-23.114062,2818.5863)">
          <path
             style="fill:#5599ff;fill-opacity:1;stroke:none;stroke-width:7.5px;stroke-linecap:butt;stroke-linejoin:miter;stroke-opacity:1"
             d="M 5.2490684,2556.1146 C 137.35474,5128.0656 2563.8447,5120 2563.8447,5120 5124.8339,4969.8832 5113.8562,2556.1147 5113.8562,2556.1147 H 5.2490684 l 5108.6072316,-1e-4"
             id="path2878"
             sodipodi:nodetypes="ccccc" />
          <path
             style="fill:#008000;fill-opacity:1;stroke:none;stroke-width:7.5px;stroke-linecap:butt;stroke-linejoin:miter;stroke-opacity:1"
             d="M 351.21748,1276.1795 H 4766.7398 c 0,0 -674.0504,-1266.179475 -2202.8951,-1276.179525 C 1035,-10 351.21748,1276.1795 351.21748,1276.1795 Z"
             id="path4175" />
          <g
             id="g11356"
             style="fill:#ffff00;fill-opacity:1;stroke:none"
             transform="translate(3367.5,-127.5)">
            <path
               style="fill:#ffff00;fill-opacity:1;stroke:#ffff00;stroke-width:0;stroke-linecap:butt;stroke-linejoin:miter;stroke-miterlimit:4;stroke-dasharray:none;stroke-opacity:1"
               d="m 1746.3562,2683.6147 c 0,0 12.1999,-615.5465 -347.1164,-1279.9352 h -4415.5223 c 0,0 -350.7959,567.8406 -345.9684,1279.9351 z"
               id="path10971"
               sodipodi:nodetypes="ccccc" />
          </g>
          <path
             style="fill:#ffff00;stroke:none;stroke-width:0;stroke-miterlimit:4;stroke-dasharray:none"
             d="m 3787.8112,2958.7912 -127.384,132.1361 -124.5129,-128.5051 -130.662,-128.5049 -33.4126,190.6396 -23.75,163.9556 -166.8898,-24.4593 -177.9836,-28.5972 -8.1518,18.692 79.3847,154.1941 68.1189,146.3792 -161.7696,87.3954 -157.6311,80.4826 164.4586,84.5847 164.4864,86.9692 -82.2432,155.5036 -82.2432,157.991 11.9938,5.504 46.2618,-7.7042 166.6115,-28.721 135.622,-21.0512 26.8153,179.8792 27.465,180.5288 128.6924,-124.9713 135.541,-124.5547 129.6093,128.0446 124.6982,113.2192 27.6334,-182.2219 32.4451,-171.741 151.1694,26.5697 205.6012,32.3326 -83.0473,-158.0952 -73.9737,-165.408 166.2156,-88.0489 157.142,-77.1158 -132.857,-65.2029 -168.8382,-80.666 -35.9814,-21.5186 43.6878,-83.1127 120.7987,-234.5758 -181.6205,23.8734 -164.8142,27.4144 -37.052,-176.4802 -27.4375,-181.8247 z"
             id="path2666"
             sodipodi:nodetypes="ccccccccccccccccccccccccccccccccccccccccccccc" />
        </g>
      </g>
    </g>
  </g>
</svg>
