<?xml version="1.0" encoding="UTF-8" standalone="no"?>
<svg
   data-bbox="0.263 0.28 25.914 25.865"
   viewBox="0 0 158.748 158.748"
   height="600"
   width="600"
   data-type="ugc"
   version="1.1"
   id="svg18"
   sodipodi:docname="SA Papers SVG.svg"
   inkscape:version="1.1.2 (b8e25be833, 2022-02-05)"
   inkscape:export-filename="C:\Users\User\Downloads\Logo\SA Papers SVG.png"
   inkscape:export-xdpi="160"
   inkscape:export-ydpi="160"
   xmlns:inkscape="http://www.inkscape.org/namespaces/inkscape"
   xmlns:sodipodi="http://sodipodi.sourceforge.net/DTD/sodipodi-0.dtd"
   xmlns="http://www.w3.org/2000/svg"
   xmlns:svg="http://www.w3.org/2000/svg">
  <defs
     id="defs22">
    <clipPath
       clipPathUnits="userSpaceOnUse"
       id="clipPath955">
      <ellipse
         style="fill:none;stroke:#000000;stroke-width:0.294858;stroke-linecap:round;stroke-miterlimit:4;stroke-dasharray:none"
         id="circle957"
         cx="12.958282"
         cy="13.11213"
         rx="12.548563"
         ry="12.683908" />
    </clipPath>
    <clipPath
       clipPathUnits="userSpaceOnUse"
       id="clipPath982">
      <ellipse
         style="fill:none;stroke:#000000;stroke-width:0.19744;stroke-linecap:round;stroke-linejoin:round;stroke-miterlimit:8.3;stroke-dasharray:none;stroke-opacity:1"
         id="ellipse984"
         cx="12.768152"
         cy="13.112128"
         rx="12.136154"
         ry="12.455774" />
    </clipPath>
  </defs>
  <sodipodi:namedview
     id="namedview20"
     pagecolor="#ffffff"
     bordercolor="#666666"
     borderopacity="1.0"
     inkscape:pageshadow="2"
     inkscape:pageopacity="0.0"
     inkscape:pagecheckerboard="0"
     showgrid="false"
     inkscape:zoom="0.35355339"
     inkscape:cx="629.32504"
     inkscape:cy="455.37677"
     inkscape:window-width="1920"
     inkscape:window-height="1009"
     inkscape:window-x="-8"
     inkscape:window-y="-8"
     inkscape:window-maximized="1"
     inkscape:current-layer="g16" />
  <g
     stroke-width="0"
     stroke="#000000"
     id="g16">
    <g
       id="g2370"
       transform="matrix(6.5402927,0,0,6.3724661,-4.1334523,-4.1825932)"
       clip-path="url(#clipPath982)"
       inkscape:export-filename="C:\Users\veerg\OneDrive\Documents\SA Papers\Logo\Final\g2370.png"
       inkscape:export-xdpi="90"
       inkscape:export-ydpi="90"
       style="stroke:none;stroke-width:0;stroke-miterlimit:4;stroke-dasharray:none">
      <g
         id="g840"
         style="stroke:none;stroke-width:0;stroke-miterlimit:4;stroke-dasharray:none">
        <g
           id="g1044"
           transform="matrix(0.9684804,0,0,0.98044376,-0.22532652,0.16233152)"
           style="stroke:none;stroke-width:0;stroke-miterlimit:4;stroke-dasharray:none">
          <path
             fill="#f0f0f0"
             d="m 26.177,13.203194 c 0,7.143 -5.797,12.933 -12.949,12.933 -7.152,0 -12.948,-5.79 -12.948,-12.933 0,-7.1430003 5.797,-12.93200029 12.948,-12.93200029 7.151,0 12.949,5.78999999 12.949,12.93300029 z"
             stroke="none"
             id="path2"
             style="fill:#ffffff;fill-opacity:1;stroke:none;stroke-width:0;stroke-miterlimit:4;stroke-dasharray:none;stroke-opacity:1" />
          <path
             d="m 4.072,22.357 c -5.056,-5.05 -5.056,-13.24 0,-18.29 l 7.467,9.145 z"
             fill="none"
             stroke="none"
             id="path4"
             style="stroke:none;stroke-width:0;stroke-miterlimit:4;stroke-dasharray:none;stroke-opacity:1" />
          <path
             d="M 14.71416,13.212 2.526,6.242 C 2.231,6.756 1.441,7.822 1.216,8.376 l 3.773,4.836 -3.772,4.836 c 0.224,0.555 1.013,1.62 1.309,2.133 z"
             fill="#ffda44"
             stroke="none"
             id="path6"
             sodipodi:nodetypes="ccccccc"
             style="stroke:none;stroke-width:0;stroke-miterlimit:4;stroke-dasharray:none;stroke-opacity:1" />
          <path
             d="M 26.067,11.525 16.301,10.467 4.601,3.537 C 3.7933468,4.3436977 3.0956721,5.2531965 2.526,6.242 l 11.72716,6.97 -11.72716,6.97 c 0.5700507,0.988527 1.2680622,1.89769 2.076,2.704 l 11.7,-6.4 9.765,-1.587 c 0.07311,-0.55937 0.109851,-1.122884 0.11,-1.687 0,-0.572 -0.038,-1.135 -0.11,-1.687 z"
             fill="#6da544"
             stroke="none"
             id="path8"
             sodipodi:nodetypes="ccccccccccc"
             style="stroke:none;stroke-width:0;stroke-miterlimit:4;stroke-dasharray:none;stroke-opacity:1" />
          <path
             d="m 5.874,24 c 2.184,1.677 4.917,2.145 7.884,2.145 5.982,0 10.487,-3.52384 11.973,-9.02984 l -9.789,1.588 z"
             fill="#0052b4"
             stroke="none"
             id="path10"
             sodipodi:nodetypes="csccc"
             style="stroke:none;stroke-width:0;stroke-miterlimit:4;stroke-dasharray:none;stroke-opacity:1" />
          <path
             d="M 25.73,9.30884 C 24.246,3.80284 19.212,0.28 13.229,0.28 c -2.966,0 -5.17,0.468 -7.354,2.144 l 10.067,5.82684 z"
             fill="#d80027"
             stroke="none"
             id="path12"
             sodipodi:nodetypes="csccc"
             style="stroke:none;stroke-width:0;stroke-miterlimit:4;stroke-dasharray:none;stroke-opacity:1" />
          <path
             d="M 0.531,15.894 C 0.086,13.65 0.194,11.49 0.865,9.233 0.975,8.863 1.191,8.402 1.216,8.376 1.242,8.35 2.382,9.45 3.69,10.793 l 2.357,2.42 -2.422,2.43 -2.408,2.405 C 0.959,17.358 0.667,16.563 0.531,15.894 Z"
             fill="#000000"
             stroke="none"
             id="path14"
             sodipodi:nodetypes="cscccccc"
             style="stroke:none;stroke-width:0;stroke-miterlimit:4;stroke-dasharray:none;stroke-opacity:1" />
        </g>
      </g>
    </g>
  </g>
</svg>
